# This file uses centimeters as units for non-parametric coordinates.

mtllib Shack.mtl
g default
v -5.386920 9.257382 -1.919296
v -6.177581 9.257382 -2.145967
v -5.386920 10.321872 -6.694759
v -5.386920 9.848027 -1.919296
v -5.386920 10.920817 -6.694759
v -6.177581 9.848027 -2.145967
v 5.386920 -0.028113 -6.694756
v 5.386920 -0.028113 -1.919295
v 5.194468 -0.028113 -1.888694
v 5.194468 -0.028113 -6.588015
v -5.386920 4.529503 6.694758
v -5.386920 5.203951 1.805103
v -5.386920 -0.028113 1.805102
v -5.386920 -0.028113 6.694756
v -6.177581 8.427183 2.018289
v -5.194468 -0.028113 1.776322
v -5.194468 5.532904 1.776322
v -5.194468 4.835808 6.588018
v -5.194468 -0.028113 6.588015
v 5.386920 10.321872 -6.694759
v 5.386920 6.376368 -6.694758
v -5.386920 6.376368 -6.694758
v -6.177581 9.011354 2.018289
v -5.386920 8.427183 1.805103
v -5.386920 5.717670 -1.919295
v 5.194468 10.644072 -6.588019
v -5.194468 10.644072 -6.588019
v -5.194468 6.744691 -6.588018
v 5.194468 6.744691 -6.588018
v -5.194468 6.063875 -1.888695
v -5.194468 9.571281 -1.888695
v -5.194468 8.734610 1.776323
v -5.386920 9.011354 1.805103
v -6.177581 10.920817 -7.485420
v 6.177581 10.920817 -7.485420
v 6.177581 10.321872 -7.485420
v -6.177581 10.321872 -7.485420
v -5.386920 7.337239 6.694759
v -5.386920 7.912911 6.694759
v 5.194468 2.752023 -5.379447
v 5.194468 2.752023 -3.375998
v 5.386920 2.752023 -3.375998
v 5.386920 2.752023 -5.379447
v 5.194468 4.755473 -5.379447
v 5.386920 4.755473 -5.379447
v 5.386920 10.920817 -6.694759
v -6.177581 7.337239 7.485420
v -6.177581 7.912911 7.485420
v 5.194468 4.755473 -3.375998
v 5.386920 4.755473 -3.375998
v -5.194468 7.636166 6.588019
v 5.386920 5.717670 -1.919295
v 5.194468 5.209696 1.776322
v 5.194468 5.740666 -1.888695
v 5.194468 9.571281 -1.888695
v 6.177581 9.257382 -2.145967
v 5.386920 9.848027 -1.919296
v 6.177581 9.848027 -2.145967
v 5.386920 5.203951 1.805103
v 5.386920 9.257382 -1.919296
v 5.386920 -0.028113 6.694756
v 5.194468 -0.028113 6.588015
v 6.177581 8.427183 2.018289
v 6.177581 9.011354 2.018289
v 5.386920 8.427183 1.805103
v 5.386920 9.011354 1.805103
v 5.386920 4.529503 6.694758
v 5.194468 4.835808 6.588018
v 5.194468 8.734610 1.776323
v 5.386920 -0.028113 1.805102
v 5.194468 -0.028113 1.776322
v 5.386920 7.337239 6.694759
v 5.386920 7.912911 6.694759
v 6.177581 7.337239 7.485420
v 6.177581 7.912911 7.485420
v 5.194468 7.636166 6.588019
v -5.194468 -0.028113 -1.888694
v -5.386920 -0.028113 -1.919295
v -5.194468 -0.028113 -6.588015
v -5.386920 -0.028113 -6.694756
vt 0.214164 0.000000
vt 0.214164 0.000000
vt 0.125000 0.000000
vt 0.214164 0.250000
vt 0.125000 0.250000
vt 0.214164 0.250000
vt 0.625000 0.750000
vt 0.625000 0.839164
vt 0.625000 0.839164
vt 0.625000 0.750000
vt 0.375000 1.000000
vt 0.375000 0.908704
vt 0.375000 0.908704
vt 0.375000 1.000000
vt 0.283704 0.000000
vt 0.375000 0.908704
vt 0.375000 0.908704
vt 0.375000 1.000000
vt 0.375000 1.000000
vt 0.375000 0.750000
vt 0.625000 0.750000
vt 0.625000 0.750000
vt 0.375000 0.750000
vt 0.283704 0.250000
vt 0.375000 0.908704
vt 0.375000 0.839164
vt 0.375000 0.839164
vt 0.283704 0.000000
vt 0.625000 0.750000
vt 0.375000 0.750000
vt 0.375000 0.750000
vt 0.625000 0.750000
vt 0.375000 0.839164
vt 0.375000 0.839164
vt 0.375000 0.908704
vt 0.283704 0.250000
vt 0.375000 0.500000
vt 0.625000 0.500000
vt 0.625000 0.750000
vt 0.375000 0.750000
vt 0.375000 0.000000
vt 0.375000 0.250000
vt 0.455318 0.750000
vt 0.455318 1.000000
vt 0.503431 1.000000
vt 0.503431 0.750000
vt 0.455318 0.500000
vt 0.503431 0.500000
vt 0.375000 0.500000
vt 0.625000 0.500000
vt 0.375000 0.000000
vt 0.375000 0.250000
vt 0.375000 1.000000
vt 0.455318 0.000000
vt 0.455318 0.250000
vt 0.503431 0.250000
vt 0.503431 0.000000
vt 0.375000 1.000000
vt 0.341789 0.000000
vt 0.672924 0.175501
vt 0.000000 0.189064
vt 0.625000 0.839164
vt 0.785836 0.000000
vt 0.875000 0.000000
vt 0.875000 0.000000
vt 0.375000 0.410836
vt 0.625000 0.410836
vt 0.875000 0.250000
vt 0.785836 0.250000
vt 0.875000 0.250000
vt 0.000000 0.000000
vt 0.943171 0.000000
vt 1.000000 0.002956
vt 0.000000 0.002956
vt 1.000000 0.000000
vt 0.785836 0.000000
vt 0.625000 1.000000
vt 0.625000 1.000000
vt 0.785836 0.250000
vt 0.716296 0.000000
vt 0.716296 0.250000
vt 0.716296 0.000000
vt 0.716296 0.250000
vt 0.625000 1.000000
vt 0.625000 1.000000
vt 0.625000 0.839164
vt 0.625000 0.839164
vt 0.625000 0.908704
vt 0.625000 0.839164
vt 0.625000 0.810944
vt 0.625000 0.810944
vt 0.625000 0.772931
vt 0.375000 0.341296
vt 0.625000 0.341296
vt 0.625000 0.908704
vt 0.625000 0.908704
vt 0.625000 0.774559
vt 0.625000 0.811966
vt 0.625000 0.811966
vt 0.059153 0.000000
vt 1.000000 0.000000
vt 1.000000 0.003235
vt 0.000000 0.003235
vt 0.625000 0.000000
vt 0.625000 0.772931
vt 0.625000 0.250000
vt 0.625000 0.774559
vt 0.625000 0.000000
vt 0.625000 0.250000
vt 0.625000 0.908704
vt 0.625000 0.908704
vt 0.625000 1.000000
vt 0.625000 0.908704
vt 0.625000 1.000000
vt 0.125000 0.250000
vt 0.125000 0.000000
vt 0.375000 0.839164
vt 0.375000 0.839164
vt 0.375000 0.750000
vt 0.375000 0.750000
vn 0.040795 -0.997153 -0.063411
vn 0.131359 -0.970080 -0.204182
vn 0.131359 -0.970080 -0.204182
vn 0.041768 -0.997016 -0.064924
vn -0.132322 0.969632 0.205679
vn -0.004533 0.975858 0.218359
vn -0.011213 0.984076 0.177396
vn -0.042102 0.996968 0.065442
vn 0.000000 -1.000000 0.000000
vn 0.117058 -0.666581 0.736184
vn -0.995759 -0.054736 0.073943
vn 0.000000 -1.000000 0.000000
vn -1.000000 0.000000 0.000000
vn -1.000000 0.000000 0.000000
vn -1.000000 -0.000000 0.000000
vn -1.000000 -0.000000 0.000000
vn -0.083623 -0.975132 -0.205245
vn 0.001757 -0.978558 -0.205966
vn 0.001757 -0.978558 -0.205966
vn -0.062459 -0.976649 -0.205564
vn 1.000000 -0.000000 0.000000
vn 1.000000 -0.000000 0.000000
vn 1.000000 0.000000 0.000000
vn 1.000000 0.000000 0.000000
vn 0.000000 -0.000000 -1.000000
vn 0.000000 -0.000000 -1.000000
vn 0.000000 -0.000000 -1.000000
vn 0.000000 -0.000000 -1.000000
vn -0.001770 0.978233 0.207503
vn 0.084239 0.974757 0.206766
vn 0.004443 0.975858 0.218360
vn -1.000000 0.000000 0.000000
vn -1.000000 0.000000 0.000000
vn -1.000000 0.000000 0.000000
vn 0.000000 0.000000 1.000000
vn 0.000000 0.000000 1.000000
vn 0.000000 0.000000 1.000000
vn 0.000000 0.000000 1.000000
vn 1.000000 -0.000000 0.000000
vn 1.000000 0.000000 0.000000
vn 1.000000 -0.000000 0.000000
vn -1.000000 0.000000 0.000000
vn -1.000000 0.000000 0.000000
vn -1.000000 0.000000 0.000000
vn -1.000000 0.000000 0.000000
vn 0.000000 0.000000 -1.000000
vn 0.000000 0.000000 -1.000000
vn 0.000000 0.000000 -1.000000
vn 0.000000 0.000000 -1.000000
vn -0.040795 -0.997153 -0.063411
vn -0.041768 -0.997016 -0.064924
vn -0.040918 -0.997081 -0.064457
vn -0.041887 -0.996941 -0.065983
vn 0.011113 0.983936 0.178174
vn 0.042222 0.996892 0.066511
vn 0.000000 1.000000 0.000000
vn 0.000000 1.000000 0.000000
vn 0.000000 1.000000 0.000000
vn 0.000000 1.000000 0.000000
vn 0.000000 0.000000 1.000000
vn 0.000000 0.000000 1.000000
vn 0.000000 0.000000 1.000000
vn 0.000000 0.000000 1.000000
vn 0.011213 0.984076 0.177396
vn 0.042102 0.996968 0.065442
vn -1.000000 0.000000 0.000000
vn 0.000000 0.000000 -1.000000
vn 0.000000 0.000000 -1.000000
vn 0.000000 0.000000 -1.000000
vn 0.000000 0.000000 -1.000000
vn 0.000000 -1.000000 0.000000
vn 0.000000 -1.000000 0.000000
vn 0.000000 -1.000000 0.000000
vn 0.000000 -1.000000 0.000000
vn 1.000000 -0.000000 0.000000
vn -0.999654 -0.015210 -0.021441
vn -0.999646 -0.017161 0.020318
vn -0.074391 -0.987410 -0.139596
vn -0.074391 -0.987410 -0.139596
vn 0.000000 -0.974919 -0.222560
vn 0.000000 -0.974919 -0.222560
vn 0.000000 -0.974919 -0.222560
vn 0.000000 -0.974919 -0.222560
vn -0.131359 -0.970080 -0.204182
vn -0.131359 -0.970080 -0.204182
vn 0.004533 0.975858 0.218359
vn 0.132322 0.969633 0.205679
vn 0.157034 0.000000 0.987593
vn 0.000000 -1.000000 -0.000000
vn 0.000000 -1.000000 -0.000000
vn 0.000000 -1.000000 -0.000000
vn 0.000000 -1.000000 -0.000000
vn -1.000000 0.000000 0.000000
vn -1.000000 0.000000 0.000000
vn -0.001757 -0.978558 -0.205966
vn -0.001757 -0.978558 -0.205966
vn 0.083623 -0.975132 -0.205245
vn 0.062459 -0.976649 -0.205564
vn -0.084239 0.974757 0.206766
vn 0.001770 0.978233 0.207503
vn -0.004443 0.975858 0.218360
vn 0.000000 -0.000001 1.000000
vn 0.000000 -0.000001 1.000000
vn 0.000000 -0.000001 1.000000
vn 0.000000 -0.000001 1.000000
vn 0.000000 0.000001 -1.000000
vn 0.000000 0.000001 -1.000000
vn 0.000000 0.000001 -1.000000
vn 0.000000 0.000001 -1.000000
vn 1.000000 0.000000 0.000000
vn 1.000000 0.000000 0.000000
vn 1.000000 0.000000 0.000000
vn 1.000000 -0.000000 0.000000
vn 0.000000 -0.974919 -0.222560
vn 0.000000 -0.974919 -0.222560
vn -1.000000 0.000000 0.000000
vn -1.000000 0.000000 0.000000
vn -1.000000 0.000000 0.000000
vn -1.000000 -0.000000 0.000000
vn -1.000000 -0.000000 0.000000
vn -1.000000 -0.000000 0.000000
vn -1.000000 -0.000000 0.000000
vn 0.104425 -0.708169 -0.698278
vn -0.998521 -0.034946 -0.041651
vn 1.000000 0.000000 0.000000
vn 1.000000 0.000000 0.000000
vn 1.000000 0.000000 0.000000
vn 1.000000 0.000000 0.000000
vn 1.000000 0.000000 0.000000
vn 0.147902 0.000000 -0.989002
vn 0.040918 -0.997081 -0.064457
vn 0.041887 -0.996941 -0.065983
vn -1.000000 -0.000000 0.000000
vn -0.011113 0.983936 0.178174
vn -0.042222 0.996892 0.066511
vn 1.000000 -0.000000 0.000000
vn 1.000000 0.000000 0.000000
vn 1.000000 0.000000 0.000000
vn 1.000000 0.000000 0.000000
vn 1.000000 0.000000 0.000000
vn -1.000000 0.000000 0.000000
vn -1.000000 0.000000 0.000000
vn 1.000000 -0.000000 0.000000
vn 1.000000 0.000000 0.000000
vn 1.000000 0.000000 0.000000
vn 1.000000 -0.000000 0.000000
vn 0.000000 -0.974919 -0.222560
vn 0.000000 -0.974919 -0.222560
vn -1.000000 -0.000000 0.000000
vn 1.000000 0.000000 0.000000
vn 0.000000 -0.000001 1.000000
vn 0.000000 -0.000001 1.000000
vn 0.000000 0.000000 -1.000000
vn 0.000000 0.000000 -1.000000
vn 0.000000 0.000000 1.000000
vn 0.000000 0.000000 1.000000
vn 0.000000 0.000000 1.000000
vn 0.000000 0.000000 1.000000
vn 1.000000 0.000000 0.000000
vn 1.000000 0.000000 0.000000
vn -1.000000 -0.000000 0.000000
vn 1.000000 0.000000 0.000000
vn 1.000000 0.000000 0.000000
vn 1.000000 0.000000 0.000000
vn -1.000000 0.000000 0.000000
vn -1.000000 0.000000 0.000000
vn 0.000000 -1.000000 0.000000
vn 0.000000 -1.000000 0.000000
vn 1.000000 0.000000 0.000000
vn 1.000000 0.000000 0.000000
vn -1.000000 0.000000 0.000000
vn -1.000000 0.000000 0.000000
vn 1.000000 -0.000000 0.000000
vn -1.000000 0.000000 0.000000
vn 0.000000 0.000000 1.000000
vn 0.000000 0.000000 1.000000
vn 0.000000 -0.000000 -1.000000
vn 0.000000 -0.000000 -1.000000
vn 0.000000 -1.000000 0.000000
vn 0.000000 -1.000000 0.000000
vn 1.000000 -0.000000 0.000000
vn 0.000000 -1.000000 0.000000
vn 0.000000 -1.000000 0.000000
vn -1.000000 0.000000 0.000000
s 1
g pCube3
usemtl initialShadingGroup
f 3/3/1 1/1/2 2/2/3 37/116/4
s 2
f 6/6/5 4/4/6 5/5/7 34/115/8
s 3
f 7/7/9 8/8/10 9/9/11 10/10/12
s 4
f 11/11/13 12/12/14 13/13/15 14/14/16
s 5
f 15/15/17 2/2/18 1/1/19 24/28/20
s 6
f 16/16/21 17/17/22 18/18/23 19/19/24
s 7
f 3/20/25 20/21/26 21/22/27 22/23/28
s 2
f 4/4/6 6/6/29 23/24/30 33/36/31
s 4
f 24/25/32 1/26/33 25/27/34 12/12/14
s 10
f 26/29/35 27/30/36 28/31/37 29/32/38
s 6
f 17/17/22 30/33/39 31/34/40 32/35/41
s 11
f 6/6/42 2/2/43 15/15/44 23/24/45
s off
f 34/37/46 35/38/47 36/39/48 37/40/49
s 1
f 20/21/50 3/20/1 37/40/4 36/39/51
s 5
f 15/15/17 24/28/20 38/41/52 47/51/53
s 2
f 39/42/54 33/36/31 23/24/30 48/52/55
s off
f 40/43/56 41/44/57 42/45/58 43/46/59
f 44/47/60 40/43/61 43/46/62 45/48/63
s 2
f 5/49/7 46/50/64 35/38/65 34/37/8
s 4
f 38/53/66 24/25/32 12/12/14 11/11/13
s off
f 41/54/67 49/55/68 50/56/69 42/57/70
f 49/55/71 44/47/72 45/48/73 50/56/74
s 6
f 18/18/23 17/17/22 32/35/41 51/58/75
s 3
f 53/60/76 54/61/77 52/59/78 59/75/79
s 13
f 27/30/80 26/29/81 55/62/82 31/34/83
s 1
f 20/64/50 36/65/51 56/63/84 60/76/85
s 2
f 4/66/6 57/67/86 46/50/64 5/49/7
f 58/69/87 35/70/65 46/68/64 57/79/86
s 3
f 8/71/10 52/72/88 54/73/77 9/74/11
f 61/77/89 14/14/90 19/19/91 62/78/92
s 11
f 23/24/45 15/15/44 47/51/93 48/52/94
s 5
f 60/76/95 56/63/96 63/80/97 65/82/98
s 2
f 64/81/99 58/69/100 57/79/86 66/83/101
s 16
f 67/84/102 11/11/103 14/14/104 61/77/105
s 17
f 18/18/106 68/85/107 62/78/108 19/19/109
s 18
f 20/21/110 60/86/111 52/87/112 21/22/113
s 13
f 31/34/83 55/62/82 69/88/114 32/35/115
s 3
f 55/62/116 26/29/117 29/32/118 54/89/77
f 54/89/77 49/90/119 41/91/120 40/92/121 10/10/122 9/9/11
s 2
f 33/93/31 66/94/101 57/67/86 4/66/6
s 3
f 70/95/123 61/77/89 62/78/92 71/96/124
s 18
f 52/87/112 8/8/125 7/7/126 43/97/127 42/98/128 50/99/129
s 3
f 59/100/130 70/101/123 71/102/124 53/103/76
s 5
f 72/104/131 65/82/98 63/80/97 74/108/132
s 3
f 54/89/77 29/32/118 10/10/122 40/92/121 44/105/133 49/90/119
s 2
f 64/81/99 66/83/101 73/106/134 75/109/135
s 18
f 21/22/113 52/87/112 50/99/129 45/107/136 43/97/127 7/7/126
s 20
f 56/63/137 36/65/138 35/70/139 58/69/140
s 3
f 68/85/141 53/110/76 71/96/124 62/78/142
s 18
f 70/95/143 59/111/144 67/84/145 61/77/146
s 13
f 32/35/115 69/88/114 76/112/147 51/58/148
s 3
f 69/88/149 55/62/116 54/89/77 53/110/76
s 18
f 52/87/112 60/86/111 65/113/150 59/111/144
s 16
f 72/114/151 38/53/152 11/11/103 67/84/102
s 2
f 39/42/54 73/106/134 66/94/101 33/93/31
s 17
f 51/58/153 76/112/154 68/85/107 18/18/106
s 5
f 38/41/52 72/104/131 74/108/132 47/51/53
s 2
f 73/106/134 39/42/54 48/52/55 75/109/135
s off
f 47/51/155 74/108/156 75/109/157 48/52/158
s 20
f 63/80/159 56/63/137 58/69/140 64/81/160
s 3
f 76/112/161 69/88/149 53/110/76 68/85/141
s 18
f 67/84/145 59/111/144 65/113/150 72/114/162
s 20
f 74/108/163 63/80/159 64/81/160 75/109/164
s 11
f 37/116/165 2/2/43 6/6/42 34/115/166
s 3
f 14/14/90 13/13/167 16/16/168 19/19/91
s 6
f 27/30/169 31/34/40 30/33/39 28/31/170
s 4
f 1/26/33 3/20/171 22/23/172 25/27/34
s 6
f 77/117/173 30/33/39 17/17/22 16/16/21
s 4
f 12/12/14 25/27/34 78/118/174 13/13/15
s 10
f 29/32/38 28/31/37 79/119/175 10/10/176
s 7
f 22/23/28 21/22/27 7/7/177 80/120/178
s 3
f 13/13/167 78/118/179 77/117/180 16/16/168
s 6
f 28/31/170 30/33/39 77/117/173 79/119/181
s 3
f 80/120/182 7/7/9 10/10/12 79/119/183
s 4
f 25/27/34 22/23/172 80/120/184 78/118/174
s 3
f 78/118/179 80/120/182 79/119/183 77/117/180
