# This file uses centimeters as units for non-parametric coordinates.

mtllib SmallPlatform.mtl
g default
v -2.655856 2.712665 2.378735
v 2.654042 2.712665 2.259308
v -2.655856 3.168267 2.378735
v 2.654042 3.168267 2.259308
v -2.516262 3.168267 -2.732612
v 2.633855 3.168267 -2.862185
v -2.516262 2.712665 -2.732612
v 2.633855 2.712665 -2.862185
v -3.366272 3.168267 -0.215691
v -3.366272 2.712665 -0.215691
v 3.790655 2.712665 -0.332879
v 3.790655 3.168267 -0.332879
v 0.137076 3.168267 3.775102
v 0.242259 3.168267 -0.215691
v 0.242259 3.168267 -4.173002
v 0.242259 2.712665 -4.173002
v 0.242259 2.680959 -0.215691
v 0.137076 2.712665 3.775102
v -1.411965 3.168267 3.219006
v -1.523289 3.168267 -0.215691
v -1.508703 3.168267 -3.803770
v -1.508703 2.712665 -3.803770
v -1.523289 2.712665 -0.215691
v -1.411965 2.712665 3.219006
v 1.691877 3.168267 3.123760
v 2.409326 3.168267 -0.287260
v 1.579987 3.168267 -3.798941
v 1.579987 2.712665 -3.798941
v 2.409326 2.680959 -0.287260
v 1.691877 2.712665 3.123760
v -3.036953 3.168267 1.502732
v -3.036953 2.712665 1.502732
v -1.346957 2.712665 1.769005
v 0.179145 2.680959 2.178954
v 1.968238 2.680959 1.594858
v 3.358953 2.712665 1.238234
v 3.358953 3.168267 1.238234
v 1.968238 3.168267 1.594858
v 0.179145 3.168267 2.178954
v -1.346957 3.168267 1.769005
v -2.981906 2.712665 -1.963150
v -2.981906 3.168267 -1.963150
v -1.335230 3.168267 -2.375796
v 0.242259 3.168267 -2.771102
v 1.953122 3.168267 -2.279513
v 3.412748 3.168267 -1.934930
v 3.412748 2.712665 -1.934930
v 1.953122 2.712665 -2.279513
v 0.242259 2.712665 -2.771102
v -1.335230 2.712665 -2.375796
v -2.294712 0.061371 2.256514
v -2.089198 0.061371 2.288894
v -2.097103 0.061371 2.465224
v -2.248369 0.061371 2.363041
v -0.526641 -0.579772 2.988617
v -0.533452 -0.579772 3.140542
v -0.366744 -0.583094 3.031571
v -0.371151 -0.579772 3.198807
v 0.776222 0.831987 2.414294
v 0.770152 0.836562 2.644612
v 1.034381 0.831987 2.330011
v 0.994503 0.836562 2.550626
v 2.395289 0.372245 2.433844
v 2.382481 0.373715 2.504702
v 2.459742 0.373715 2.417316
v 2.427073 0.373715 2.464638
v 3.035192 -0.314622 0.735805
v 3.160359 -0.311769 0.703708
v 3.074891 -0.314622 0.566412
v 3.199212 -0.311769 0.562306
v -2.932953 0.493541 0.577412
v -2.562916 0.493541 0.577412
v -2.527512 0.493541 0.975902
v -2.866831 0.493541 0.922439
v -2.497214 -0.552290 -1.464610
v -2.754672 -0.552290 -1.400093
v -2.526618 -0.552290 -1.126877
v -2.814767 -0.552290 -1.126877
v -1.128353 1.614977 3.062278
v -0.160091 1.614977 3.409879
v -0.133795 1.595159 2.412171
v -1.087719 1.614977 2.155923
v -0.827221 0.222066 2.896413
v -0.481562 0.222066 3.020503
v -0.472174 0.214991 2.664331
v -0.812715 0.222066 2.572853
v -2.401163 1.737276 2.368926
v -1.840199 1.737276 2.747867
v -1.810882 1.737276 2.093952
v -2.573029 1.737276 1.973870
v -2.294381 0.732824 2.364814
v -2.019740 0.732824 2.550338
v -2.005387 0.732824 2.230191
v -2.378524 0.732824 2.171400
v 0.749223 1.781118 3.074224
v 1.276687 1.781118 2.853256
v 1.370442 1.770362 2.334578
v 0.763495 1.770362 2.532733
v 0.879399 1.116401 2.939348
v 1.194569 1.116401 2.807315
v 1.250589 1.109974 2.497395
v 0.887926 1.109974 2.615796
v 2.207464 1.984630 2.576668
v 2.595134 1.984630 2.228370
v 2.879152 1.984630 1.816965
v 2.318814 1.971855 1.960654
v 2.588657 1.042508 2.230860
v 2.709118 1.042508 2.056371
v 2.471461 1.037090 2.117313
v 2.424234 1.042508 2.378585
v 3.276344 1.549730 0.247052
v 2.716199 1.536873 0.265552
v 2.537332 1.536873 1.028773
v 3.101284 1.549730 0.884158
v 3.126110 0.333453 0.443723
v 2.837380 0.326826 0.453259
v 2.745182 0.326826 0.846665
v 3.035874 0.333453 0.772122
v -2.751044 1.319021 0.388990
v -2.622393 1.319021 1.060303
v -1.962186 1.319021 1.164324
v -2.031071 1.319021 0.388990
v -2.818577 2.039251 0.322614
v -2.667900 2.039251 1.108868
v -1.894652 2.039251 1.230700
v -1.975332 2.039251 0.322614
v -2.742342 1.872208 -1.709827
v -2.980818 1.872208 -0.625639
v -1.837364 1.872208 -0.625639
v -1.720685 1.872208 -1.965848
v -2.617445 0.538753 -1.577756
v -2.779859 0.538753 -0.839368
v -2.001108 0.538753 -0.839368
v -1.921643 0.538753 -1.752119
vt 0.375000 0.000000
vt 0.625000 0.000000
vt 0.375000 0.250000
vt 0.625000 0.250000
vt 0.375000 0.500000
vt 0.625000 0.500000
vt 0.375000 0.750000
vt 0.625000 0.750000
vt 0.375000 1.000000
vt 0.625000 1.000000
vt 0.875000 0.000000
vt 0.875000 0.250000
vt 0.125000 0.000000
vt 0.125000 0.250000
vt 0.243539 0.250000
vt 0.375000 0.381461
vt 0.243539 0.000000
vt 0.375000 0.868539
vt 0.625000 0.868539
vt 0.756461 0.000000
vt 0.625000 0.381461
vt 0.756461 0.250000
vt 0.508996 0.250000
vt 0.508996 0.381461
vt 0.508996 0.500000
vt 0.508996 0.750000
vt 0.508996 0.868539
vt 0.508996 0.000000
vt 0.508996 1.000000
vt 0.443436 0.250000
vt 0.443436 0.381461
vt 0.443436 0.500000
vt 0.443436 0.750000
vt 0.443436 0.868539
vt 0.443436 0.000000
vt 0.443436 1.000000
vt 0.579842 0.250000
vt 0.579842 0.381461
vt 0.579842 0.500000
vt 0.579842 0.750000
vt 0.579842 0.868539
vt 0.579842 0.000000
vt 0.579842 1.000000
vt 0.322421 0.250000
vt 0.375000 0.302579
vt 0.322421 0.000000
vt 0.375000 0.947421
vt 0.443436 0.947421
vt 0.508996 0.947421
vt 0.579842 0.947421
vt 0.625000 0.947421
vt 0.677579 0.000000
vt 0.625000 0.302579
vt 0.677579 0.250000
vt 0.579842 0.302579
vt 0.508996 0.302579
vt 0.443436 0.302579
vt 0.166993 0.000000
vt 0.375000 0.791993
vt 0.166993 0.250000
vt 0.375000 0.458007
vt 0.443436 0.458007
vt 0.508996 0.458007
vt 0.579842 0.458007
vt 0.625000 0.458007
vt 0.833007 0.250000
vt 0.625000 0.791993
vt 0.833007 0.000000
vt 0.579842 0.791993
vt 0.508996 0.791993
vt 0.443436 0.791993
vt 0.375000 0.947421
vt 0.443436 0.947421
vt 0.443436 1.000000
vt 0.375000 1.000000
vt 0.443436 1.000000
vt 0.443436 0.947421
vt 0.508996 0.947421
vt 0.508996 1.000000
vt 0.508996 1.000000
vt 0.508996 0.947421
vt 0.579842 0.947421
vt 0.579842 1.000000
vt 0.579842 1.000000
vt 0.579842 0.947421
vt 0.625000 0.947421
vt 0.625000 1.000000
vt 0.625000 0.947421
vt 0.579842 0.947421
vt 0.579842 0.868539
vt 0.625000 0.868539
vt 0.375000 0.868539
vt 0.443436 0.868539
vt 0.443436 0.947421
vt 0.375000 0.947421
vt 0.375000 0.791993
vt 0.443436 0.791993
vt 0.443436 0.868539
vt 0.375000 0.868539
vt 0.443436 1.000000
vt 0.508996 1.000000
vt 0.508996 0.947421
vt 0.443436 0.947421
vt 0.443436 1.000000
vt 0.508996 1.000000
vt 0.508996 0.947421
vt 0.443436 0.947421
vt 0.375000 1.000000
vt 0.443436 1.000000
vt 0.443436 0.947421
vt 0.375000 0.947421
vt 0.375000 1.000000
vt 0.443436 1.000000
vt 0.443436 0.947421
vt 0.375000 0.947421
vt 0.508996 1.000000
vt 0.579842 1.000000
vt 0.579842 0.947421
vt 0.508996 0.947421
vt 0.508996 1.000000
vt 0.579842 1.000000
vt 0.579842 0.947421
vt 0.508996 0.947421
vt 0.579842 1.000000
vt 0.625000 1.000000
vt 0.625000 0.947421
vt 0.579842 0.947421
vt 0.625000 1.000000
vt 0.625000 0.947421
vt 0.579842 0.947421
vt 0.579842 1.000000
vt 0.625000 0.868539
vt 0.579842 0.868539
vt 0.579842 0.947421
vt 0.625000 0.947421
vt 0.625000 0.868539
vt 0.579842 0.868539
vt 0.579842 0.947421
vt 0.625000 0.947421
vt 0.375000 0.868539
vt 0.375000 0.947421
vt 0.443436 0.947421
vt 0.443436 0.868539
vt 0.375000 0.868539
vt 0.375000 0.947421
vt 0.443436 0.947421
vt 0.443436 0.868539
vt 0.375000 0.791993
vt 0.375000 0.868539
vt 0.443436 0.868539
vt 0.443436 0.791993
vt 0.375000 0.791993
vt 0.375000 0.868539
vt 0.443436 0.868539
vt 0.443436 0.791993
vn -0.557352 -0.092790 0.825075
vn -0.434603 -0.122295 0.892281
vn -0.447188 0.000000 0.894440
vn -0.559768 0.000000 0.828650
vn 0.000000 1.000000 -0.000000
vn 0.000000 1.000000 -0.000000
vn 0.000000 1.000000 -0.000000
vn 0.000000 1.000000 -0.000000
vn -0.728400 0.000000 -0.685152
vn -0.462860 0.000000 -0.886432
vn -0.462860 0.000000 -0.886432
vn -0.728400 0.000000 -0.685152
vn 0.000000 -1.000000 -0.000000
vn 0.000000 -1.000000 -0.000000
vn 0.000000 -1.000000 -0.000000
vn 0.000000 -1.000000 -0.000000
vn 0.748489 -0.046845 0.661490
vn 0.916864 -0.137589 0.374739
vn 0.915829 0.000000 0.401569
vn 0.822941 0.000000 0.568128
vn -0.931225 -0.250325 0.264872
vn -0.907006 -0.147118 0.394584
vn -0.916984 0.000000 0.398925
vn -0.964495 0.000000 0.264102
vn -0.855541 0.000000 -0.517735
vn -0.949616 -0.168637 -0.264179
vn -0.947430 0.000000 -0.319964
vn -0.855541 0.000000 -0.517735
vn 0.000000 -1.000000 -0.000000
vn 0.000000 -1.000000 -0.000000
vn -0.005769 -0.999975 -0.003986
vn 0.000000 -1.000000 -0.000000
vn 0.909400 0.000000 -0.415922
vn 0.909400 0.000000 -0.415922
vn 0.765705 0.000000 -0.643192
vn 0.765705 0.000000 -0.643192
vn 0.000000 1.000000 0.000000
vn 0.000000 1.000000 -0.000000
vn 0.000000 1.000000 -0.000000
vn 0.000000 1.000000 0.000000
vn 0.000000 1.000000 0.000000
vn 0.000000 1.000000 0.000000
vn 0.000000 1.000000 0.000000
vn 0.000000 1.000000 0.000000
vn 0.000000 1.000000 -0.000000
vn 0.000000 1.000000 -0.000000
vn 0.000000 1.000000 -0.000000
vn 0.000000 1.000000 -0.000000
vn 0.001564 0.000000 -0.999999
vn 0.001564 0.000000 -0.999999
vn 0.480634 0.000000 -0.876921
vn 0.480634 0.000000 -0.876921
vn -0.002413 -0.999978 -0.006262
vn 0.000000 -1.000000 0.000000
vn 0.000000 -1.000000 0.000000
vn 0.002922 -0.999949 -0.009708
vn 0.007788 -0.999747 0.021080
vn 0.007788 -0.999747 0.021080
vn 0.007788 -0.999747 0.021080
vn 0.007788 -0.999747 0.021080
vn 0.030672 0.000000 0.999529
vn -0.016601 -0.199403 0.979777
vn 0.498938 -0.167560 0.850285
vn 0.515900 0.000000 0.856649
vn -0.013430 -0.999860 0.009935
vn -0.013430 -0.999860 0.009935
vn -0.013430 -0.999860 0.009935
vn -0.013430 -0.999860 0.009935
vn 0.000000 1.000000 0.000000
vn 0.000000 1.000000 0.000000
vn 0.000000 1.000000 0.000000
vn 0.000000 1.000000 -0.000000
vn 0.664358 0.000000 -0.747415
vn 0.664358 0.000000 -0.747415
vn 0.000000 -1.000000 0.000000
vn 0.010940 -0.999887 -0.010327
vn 0.024887 -0.999448 0.022004
vn 0.024887 -0.999448 0.022004
vn 0.024887 -0.999448 0.022004
vn 0.024887 -0.999448 0.022004
vn 0.668325 0.000000 0.743869
vn -0.966925 -0.252693 -0.034669
vn -0.999874 0.000000 -0.015881
vn 0.000000 -1.000000 0.000000
vn 0.000000 -1.000000 0.000000
vn 0.000000 -1.000000 0.000000
vn 0.000000 -1.000000 0.000000
vn -0.009371 -0.999956 0.000242
vn -0.019323 -0.999813 0.000500
vn -0.014624 -0.999887 -0.003488
vn -0.006352 -0.999965 -0.005403
vn 0.000000 -1.000000 -0.000000
vn 0.004151 -0.999954 -0.008637
vn 0.023739 -0.999700 0.006000
vn 0.023739 -0.999700 0.006000
vn 0.023739 -0.999700 0.006000
vn 0.023739 -0.999700 0.006000
vn 0.981645 -0.137168 0.132505
vn 0.999856 0.000000 0.016951
vn 0.000000 1.000000 0.000000
vn 0.000000 1.000000 -0.000000
vn 0.000000 1.000000 0.000000
vn 0.000000 1.000000 0.000000
vn 0.000000 1.000000 0.000000
vn 0.012389 -0.999855 -0.011695
vn 0.000000 -1.000000 -0.000000
vn 0.000000 -1.000000 -0.000000
vn 0.000000 -1.000000 -0.000000
vn 0.000000 -1.000000 -0.000000
vn 0.144351 -0.373879 -0.916175
vn 0.144351 -0.373879 -0.916175
vn 0.147846 -0.312458 -0.938356
vn 0.147822 -0.312927 -0.938203
vn 0.907499 -0.418080 0.040686
vn 0.907499 -0.418080 0.040686
vn 0.935397 -0.351103 0.041937
vn 0.935562 -0.350664 0.041944
vn -0.555409 -0.124543 0.822198
vn -0.555348 -0.125407 0.822108
vn -0.899320 -0.195333 0.391240
vn -0.899800 -0.192682 0.391450
vn -0.968776 -0.244103 -0.043433
vn -0.968776 -0.244103 -0.043433
vn -0.972328 -0.229518 -0.043592
vn -0.972380 -0.229294 -0.043594
vn 0.244513 -0.270474 -0.931159
vn 0.244513 -0.270474 -0.931159
vn 0.245967 -0.254314 -0.935321
vn 0.245688 -0.257479 -0.934528
vn 0.962171 -0.270707 0.030737
vn 0.962171 -0.270707 0.030737
vn 0.965669 -0.257969 0.030576
vn 0.966696 -0.254099 0.030526
vn -0.330838 -0.203117 0.921569
vn -0.330826 -0.203287 0.921536
vn -0.839551 -0.543163 -0.011338
vn -0.839551 -0.543163 -0.011338
vn -0.883583 -0.468066 -0.013990
vn -0.870734 -0.491577 -0.013185
vn -0.269804 -0.494211 -0.826414
vn -0.269804 -0.494211 -0.826414
vn -0.279115 -0.437247 -0.854933
vn -0.279328 -0.435833 -0.855585
vn 0.881221 -0.441674 0.168447
vn 0.881221 -0.441674 0.168447
vn 0.904161 -0.391236 0.171548
vn 0.910870 -0.374949 0.172423
vn 0.362166 -0.348493 0.864516
vn 0.362523 -0.345999 0.865368
vn -0.855449 -0.497373 -0.144315
vn -0.855449 -0.497373 -0.144315
vn -0.907362 -0.390363 -0.155918
vn -0.894062 -0.421048 -0.152878
vn -0.200073 -0.525495 -0.826937
vn -0.200073 -0.525496 -0.826937
vn -0.212833 -0.445549 -0.869591
vn -0.216773 -0.417462 -0.882459
vn 0.747704 -0.059132 0.661394
vn 0.821320 -0.062736 0.567008
vn 0.667164 -0.058890 0.742579
vn 0.241453 -0.331215 0.912139
vn 0.241453 -0.331215 0.912139
vn 0.245518 -0.257614 0.934535
vn 0.244799 -0.272911 0.930372
vn -0.912704 -0.348164 -0.213899
vn -0.912704 -0.348164 -0.213899
vn -0.933107 -0.285466 -0.218680
vn -0.932757 -0.286671 -0.218598
vn -0.019581 -0.439234 -0.898159
vn -0.019581 -0.439234 -0.898159
vn -0.022091 -0.372471 -0.927781
vn -0.022920 -0.349268 -0.936742
vn 0.940371 -0.221216 0.258390
vn 0.939961 -0.223084 0.258277
vn 0.000000 -0.624394 -0.781110
vn 0.000000 -0.624394 -0.781110
vn 0.000000 -0.474747 -0.880122
vn 0.000000 -0.476301 -0.879282
vn 0.800926 -0.594519 -0.071159
vn 0.800926 -0.594519 -0.071159
vn 0.890991 -0.447066 -0.079161
vn 0.891861 -0.445315 -0.079238
vn -0.129715 -0.552608 0.823285
vn -0.129715 -0.552608 0.823285
vn -0.142201 -0.406471 0.902530
vn -0.141914 -0.410600 0.900704
vn -0.899167 -0.402250 0.172316
vn -0.901289 -0.397296 0.172723
vn -0.228587 -0.340099 -0.912185
vn -0.228587 -0.340099 -0.912185
vn -0.236208 -0.236059 -0.942593
vn -0.236326 -0.234039 -0.943067
vn 0.920275 -0.382982 0.080120
vn 0.920275 -0.382982 0.080120
vn 0.960083 -0.266933 0.083585
vn 0.959896 -0.267612 0.083569
vn 0.000000 -0.438397 0.898781
vn 0.000000 -0.438397 0.898781
vn 0.000000 -0.310759 0.950489
vn 0.000000 -0.310031 0.950726
vn -0.952241 -0.222188 -0.209453
vn -0.951742 -0.224418 -0.209343
vn -0.335284 -0.123756 0.933954
vn -0.335383 -0.121377 0.934230
vn 0.983662 -0.177597 0.029454
vn 0.987088 -0.157506 0.029145
vn 0.244990 -0.265271 -0.932530
vn 0.245820 -0.255990 -0.934902
vn -0.971427 -0.233307 -0.043552
vn -0.971041 -0.234914 -0.043535
vn -0.333492 0.160652 0.928964
vn -0.333492 0.160652 0.928964
vn 0.989672 0.141450 0.023275
vn 0.989672 0.141450 0.023275
vn 0.232464 -0.381056 -0.894850
vn 0.232464 -0.381056 -0.894850
vn -0.933958 -0.354922 -0.041872
vn -0.933958 -0.354922 -0.041872
vn -0.558851 -0.057186 0.827294
vn -0.558848 -0.057277 0.827290
vn 0.984746 -0.168303 0.044149
vn 0.984755 -0.168251 0.044150
vn 0.153925 -0.147953 -0.976943
vn 0.153924 -0.148008 -0.976934
vn -0.913260 -0.090035 0.397304
vn -0.913283 -0.089752 0.397314
vn -0.559308 -0.040513 0.827970
vn -0.559308 -0.040513 0.827970
vn 0.991789 -0.119908 0.044465
vn 0.991789 -0.119908 0.044465
vn 0.154775 -0.105202 -0.982333
vn 0.154775 -0.105202 -0.982333
vn -0.915118 -0.063761 0.398112
vn -0.915118 -0.063761 0.398112
vn 0.367589 -0.308126 0.877461
vn 0.368268 -0.302642 0.879083
vn 0.951655 -0.250888 0.177222
vn 0.936446 -0.303717 0.175568
vn -0.310299 0.019250 -0.950444
vn -0.310179 0.033768 -0.950078
vn -0.999073 -0.034584 -0.025644
vn -0.995576 -0.090722 -0.024437
vn 0.257050 -0.746610 0.613596
vn 0.257050 -0.746610 0.613595
vn 0.736047 -0.660832 0.146750
vn 0.736047 -0.660832 0.146750
vn -0.240720 0.631189 -0.737329
vn -0.240720 0.631189 -0.737329
vn -0.919167 0.392564 -0.032023
vn -0.919167 0.392564 -0.032023
vn 0.668209 0.018573 0.743742
vn 0.749683 0.007658 0.661752
vn 0.822936 -0.003377 0.568124
vn -0.236376 -0.235385 -0.942719
vn -0.235070 -0.250991 -0.939013
vn -0.975429 -0.135780 -0.173502
vn -0.973574 -0.149208 -0.172888
vn 0.745450 0.052178 0.664516
vn 0.822941 -0.000237 0.568126
vn -0.219243 -0.398816 -0.890437
vn -0.219243 -0.398816 -0.890437
vn -0.983573 0.027770 -0.178364
vn -0.983573 0.027770 -0.178364
vn 0.665103 0.098076 0.740283
vn -0.028887 -0.160969 -0.986537
vn -0.028843 -0.162538 -0.986281
vn -0.956977 -0.184107 -0.224275
vn -0.957188 -0.182945 -0.224324
vn 0.249311 -0.091298 0.964110
vn 0.249307 -0.093612 0.963889
vn 0.963858 -0.028906 0.264844
vn 0.963851 -0.029153 0.264842
vn -0.028232 -0.183780 -0.982562
vn -0.028232 -0.183780 -0.982562
vn -0.903748 -0.371996 -0.211800
vn -0.903748 -0.371996 -0.211800
vn 0.249192 -0.054447 0.966922
vn 0.249192 -0.054447 0.966922
vn 0.952454 0.156011 0.261710
vn 0.952454 0.156011 0.261710
vn -0.979605 0.071625 0.187732
vn -0.979596 0.071757 0.187730
vn -0.950666 0.251081 0.182186
vn -0.950666 0.251081 0.182186
vn -0.154948 -0.094063 0.983434
vn -0.154933 -0.095111 0.983336
vn -0.154550 -0.118056 0.980906
vn -0.154550 -0.118056 0.980906
vn 0.943338 -0.321075 -0.083812
vn 0.943975 -0.319181 -0.083868
vn 0.830586 -0.551979 -0.073794
vn 0.830586 -0.551979 -0.073794
vn 0.000000 -0.151249 -0.988496
vn 0.000000 -0.148605 -0.988897
vn 0.000000 -0.222534 -0.974925
vn 0.000000 -0.222534 -0.974925
vn -0.975387 -0.050902 -0.214544
vn -0.975357 -0.051497 -0.214537
vn 0.000000 -0.188818 0.982012
vn 0.000000 -0.187846 0.982199
vn 0.966794 -0.241300 0.084170
vn 0.967025 -0.240365 0.084190
vn -0.241306 -0.120496 -0.962939
vn -0.241302 -0.120633 -0.962923
vn -0.972905 0.087520 -0.213998
vn -0.972906 0.087520 -0.213998
vn 0.000000 -0.254819 0.966989
vn 0.000000 -0.254819 0.966989
vn 0.890094 -0.449142 0.077492
vn 0.890094 -0.449142 0.077492
vn -0.241129 -0.126359 -0.962232
vn -0.241129 -0.126359 -0.962232
s 1
g pCube2
usemtl initialShadingGroup
f 1/1/1 24/35/2 19/30/3 3/3/4
s 2
f 3/3/5 19/30/6 40/57/7 31/45/8
s 3
f 5/5/9 21/32/10 22/33/11 7/7/12
s off
f 51/72/13 52/73/14 53/74/15 54/75/16
s 1
f 2/2/17 36/52/18 37/54/19 4/4/20
s 5
f 32/46/21 1/1/22 3/3/23 31/44/24
f 7/13/25 41/58/26 42/60/27 5/14/28
s 7
f 7/7/29 22/33/30 50/71/31 41/59/32
s 1
f 46/66/33 47/68/34 8/11/35 6/12/36
s 2
f 42/61/37 43/62/38 21/32/39 5/5/40
f 13/23/41 25/37/42 38/55/43 39/56/44
f 15/25/45 44/63/46 45/64/47 27/39/48
s 3
f 16/26/49 15/25/50 27/39/51 28/40/52
s 7
f 49/70/53 16/26/54 28/40/55 48/69/56
s off
f 60/80/57 59/81/58 61/82/59 62/83/60
s 1
f 13/23/61 18/28/62 30/42/63 25/37/64
s 2
f 19/30/6 13/23/41 39/56/44 40/57/7
f 21/32/39 43/62/38 44/63/46 15/25/45
s 3
f 22/33/11 21/32/10 15/25/50 16/26/49
s 7
f 50/71/31 22/33/30 16/26/54 49/70/53
s off
f 56/76/65 55/77/66 57/78/67 58/79/68
s 1
f 19/30/3 24/35/2 18/28/62 13/23/61
s 2
f 25/37/42 4/4/69 37/53/70 38/55/43
f 27/39/48 45/64/47 46/65/71 6/6/72
s 3
f 28/40/52 27/39/51 6/6/73 8/8/74
s 7
f 48/69/56 28/40/55 8/8/75 47/67/76
s off
f 64/84/77 63/85/78 65/86/79 66/87/80
s 1
f 25/37/64 30/42/63 2/2/17 4/4/81
s 5
f 10/17/82 32/46/21 31/44/24 9/15/83
s off
f 71/92/84 72/93/85 73/94/86 74/95/87
s 7
f 34/49/88 33/48/89 23/34/90 17/27/91
f 35/50/92 34/49/88 17/27/91 29/41/93
s off
f 68/88/94 67/89/95 69/90/96 70/91/97
s 1
f 37/54/19 36/52/18 11/20/98 12/22/99
s 2
f 38/55/43 37/53/70 12/21/100 26/38/101
f 39/56/44 38/55/43 26/38/101 14/24/102
f 40/57/7 39/56/44 14/24/102 20/31/103
f 31/45/8 40/57/7 20/31/103 9/16/104
s 5
f 41/58/26 10/17/82 9/15/83 42/60/27
s 2
f 9/16/104 20/31/103 43/62/38 42/61/37
f 44/63/46 43/62/38 20/31/103 14/24/102
f 45/64/47 44/63/46 14/24/102 26/38/101
f 46/65/71 45/64/47 26/38/101 12/21/100
s 1
f 12/22/99 11/20/98 47/68/34 46/66/33
s 7
f 29/41/93 48/69/56 47/67/76 11/19/105
f 17/27/91 49/70/53 48/69/56 29/41/93
f 23/34/90 50/71/31 49/70/53 17/27/91
s off
f 76/96/106 75/97/107 77/98/108 78/99/109
s 11
f 32/47/110 33/48/111 89/110/112 90/111/113
s 12
f 33/48/114 24/36/115 88/109/116 89/110/117
s 1
f 24/36/2 1/9/1 87/108/118 88/109/119
s 5
f 1/9/22 32/47/21 90/111/120 87/108/121
s 13
f 24/36/122 33/48/123 82/103/124 79/100/125
s 14
f 33/48/126 34/49/127 81/102/128 82/103/129
s 15
f 34/49/130 18/29/131 80/101/132 81/102/133
s 1
f 18/29/62 24/36/2 79/100/134 80/101/135
s 16
f 18/29/136 34/49/137 98/119/138 95/116/139
s 17
f 34/49/140 35/50/141 97/118/142 98/119/143
s 18
f 35/50/144 30/43/145 96/117/146 97/118/147
s 1
f 30/43/63 18/29/62 95/116/148 96/117/149
s 19
f 30/43/150 35/50/151 106/127/152 103/124/153
s 20
f 35/50/154 36/51/155 105/126/156 106/127/157
s 1
f 36/51/18 2/10/17 104/125/158 105/126/159
f 2/10/17 30/43/63 103/124/160 104/125/158
s 21
f 36/51/161 35/50/162 113/134/163 114/135/164
s 22
f 35/50/165 29/41/166 112/133/167 113/134/168
s 23
f 29/41/169 11/19/170 111/132/171 112/133/172
s 1
f 11/19/98 36/51/18 114/135/173 111/132/174
s 24
f 10/18/175 23/34/176 126/147/177 123/144/178
s 25
f 23/34/179 33/48/180 125/146/181 126/147/182
s 26
f 33/48/183 32/47/184 124/145/185 125/146/186
s 5
f 32/47/21 10/18/82 123/144/187 124/145/188
s 27
f 41/59/189 50/71/190 130/151/191 127/148/192
s 28
f 50/71/193 23/34/194 129/150/195 130/151/196
s 29
f 23/34/197 10/18/198 128/149/199 129/150/200
s 5
f 10/18/82 41/59/26 127/148/201 128/149/202
s 1
f 80/101/135 79/100/134 83/104/203 84/105/204
s 15
f 81/102/133 80/101/132 84/105/205 85/106/206
s 14
f 82/103/129 81/102/128 85/106/207 86/107/208
s 13
f 79/100/125 82/103/124 86/107/209 83/104/210
s 1
f 84/105/204 83/104/203 56/76/211 58/79/212
s 15
f 85/106/206 84/105/205 58/79/213 57/78/214
s 14
f 86/107/208 85/106/207 57/78/215 55/77/216
s 13
f 83/104/210 86/107/209 55/77/217 56/76/218
s 1
f 88/109/119 87/108/118 91/112/219 92/113/220
s 12
f 89/110/117 88/109/116 92/113/221 93/114/222
s 11
f 90/111/113 89/110/112 93/114/223 94/115/224
s 5
f 87/108/121 90/111/120 94/115/225 91/112/226
s 1
f 92/113/220 91/112/219 54/75/227 53/74/228
s 12
f 93/114/222 92/113/221 53/74/229 52/73/230
s 11
f 94/115/224 93/114/223 52/73/231 51/72/232
s 5
f 91/112/226 94/115/225 51/72/233 54/75/234
s 1
f 96/117/149 95/116/148 99/120/235 100/121/236
s 18
f 97/118/147 96/117/146 100/121/237 101/122/238
s 17
f 98/119/143 97/118/142 101/122/239 102/123/240
s 16
f 95/116/139 98/119/138 102/123/241 99/120/242
s 1
f 100/121/236 99/120/235 60/80/243 62/83/244
s 18
f 101/122/238 100/121/237 62/83/245 61/82/246
s 17
f 102/123/240 101/122/239 61/82/247 59/81/248
s 16
f 99/120/242 102/123/241 59/81/249 60/80/250
s 1
f 104/125/158 103/124/160 110/131/251 107/128/252
f 105/126/159 104/125/158 107/128/252 108/129/253
s 20
f 106/127/157 105/126/156 108/129/254 109/130/255
s 19
f 103/124/153 106/127/152 109/130/256 110/131/257
s 1
f 108/129/253 107/128/252 66/87/258 65/86/259
s 20
f 109/130/255 108/129/254 65/86/260 63/85/261
s 19
f 110/131/257 109/130/256 63/85/262 64/84/263
s 1
f 107/128/252 110/131/251 64/84/264 66/87/258
s 23
f 112/133/172 111/132/171 115/136/265 116/137/266
s 22
f 113/134/168 112/133/167 116/137/267 117/138/268
s 21
f 114/135/164 113/134/163 117/138/269 118/139/270
s 1
f 111/132/174 114/135/173 118/139/271 115/136/272
s 23
f 116/137/266 115/136/265 70/91/273 69/90/274
s 22
f 117/138/268 116/137/267 69/90/275 67/89/276
s 21
f 118/139/270 117/138/269 67/89/277 68/88/278
s 1
f 115/136/272 118/139/271 68/88/279 70/91/280
s 5
f 120/141/281 119/140/282 71/92/283 74/95/284
s 26
f 121/142/285 120/141/286 74/95/287 73/94/288
s 25
f 122/143/289 121/142/290 73/94/291 72/93/292
s 24
f 119/140/293 122/143/294 72/93/295 71/92/296
s 5
f 124/145/188 123/144/187 119/140/282 120/141/281
s 26
f 125/146/186 124/145/185 120/141/286 121/142/285
s 25
f 126/147/182 125/146/181 121/142/290 122/143/289
s 24
f 123/144/178 126/147/177 122/143/294 119/140/293
s 5
f 128/149/202 127/148/201 131/152/297 132/153/298
s 29
f 129/150/200 128/149/199 132/153/299 133/154/300
s 28
f 130/151/196 129/150/195 133/154/301 134/155/302
s 27
f 127/148/192 130/151/191 134/155/303 131/152/304
s 5
f 132/153/298 131/152/297 76/96/305 78/99/306
s 29
f 133/154/300 132/153/299 78/99/307 77/98/308
s 28
f 134/155/302 133/154/301 77/98/309 75/97/310
s 27
f 131/152/304 134/155/303 75/97/311 76/96/312
